<svg version="1.1" id="Layer_1" xmlns="http://www.w3.org/2000/svg" xmlns:xlink="http://www.w3.org/1999/xlink" x="0px" y="0px" viewBox="0 0 200 66" style="enable-background:new 0 0 200 66;" xml:space="preserve">
 <style type="text/css">
  .st0{fill:#4D4D4D;}
	.st1{fill:#FFCC03;}
 </style>
 <g>
  <path class="st0" d="M13.4,40l5.2-18c0.4-1.2,1.4-3,3.6-3c2.4,0,4.4,1.4,4.4,4c0,0.8-0.2,1.4-0.6,2.4l-6.8,19.4
		C18,48.6,17,50,13.8,50h-0.6c-3.6,0-4.6-1.4-6-5.2L0.6,25.4C0.2,24.4,0,23.8,0,23c0-2.6,2-4,4.2-4c2.4,0,3.4,1.8,3.8,3l5.2,18H13.4
		L13.4,40z M96.2,45.4c0,2.6,1.6,4.6,4,4.6c2.4,0,4-2,4-4.6V4.6c0-2.8-1.6-4.6-4-4.6c-2.4,0-4,1.8-4,4.6V45.4z M111,45.4
		c0,2.6,1.6,4.6,4,4.6s4.2-2,4.2-4.6V23.6c0-2.6-1.8-4.6-4.2-4.6s-4,2-4,4.6V45.4z M152.4,32.8c0-9.4-4.8-14-13.4-14
		c-8.8,0-13.6,4.6-13.6,14v12.6c0,2.6,1.6,4.6,4,4.6c2.6,0,4.2-2,4.2-4.6v-14c0-3.8,2-5.4,5.4-5.4s5.2,2.2,5.2,5.4v14
		c0,2.6,1.8,4.6,4.2,4.6c2.4,0,4-2,4-4.6V32.8z M30.8,36c0,9.4,5,14,13.6,14C53.2,50,58,45.4,58,36V23.4c0-2.8-1.6-4.6-4-4.6
		s-4.2,2-4.2,4.6v14c0,3.8-2,5.4-5.4,5.4c-3.4,0-5.2-2.2-5.2-5.4v-14c0-2.8-1.8-4.6-4-4.6c-2.4,0-4.2,2-4.2,4.6V36H30.8z
		 M172.8,18.8c-9.2,0-15.2,6.2-15.2,15.8S163,50,170.6,50c3.8,0,6.2-1.2,7.6-2.6v4.8c0,3.8-1.8,6.4-6.6,6.4c-4.8,0-6.6-2.4-9.2-2.4
		c-1.8,0-3,1.6-3,3.4c0,3.6,6.6,6.4,11.6,6.4c10.4,0,15-6,15-15V25.8c0-2.8-1.4-4-3.8-5.2C180.4,20,177.4,18.8,172.8,18.8z
		 M178.2,34.2c0,5.8-2,8.6-6.2,8.6s-6.2-2.2-6.2-8.2c0-5.4,2-8.8,7.2-8.8c3.4,0,5.2,1.6,5.2,2.6V34.2z M87.2,37.2H71
		c0.6,3.4,2.2,5.8,6.4,5.8c4.2,0,6.4-1.6,8.4-1.6c1.6,0,3,1.8,3,3.4c0,3.4-5.4,5-11.4,5c-8.8,0-14.4-6-14.4-15.4
		c0-9.6,5.4-15.8,14.2-15.8c9.2,0,13.2,6.2,13.2,15C90.4,36,89.6,37.2,87.2,37.2z M82.8,31.6c-0.2-3.8-2-6.4-5.8-6.4s-5.6,1.8-6,6.4
		H82.8z">
  </path>
  <path class="st1" d="M200,9c0,2.8-2,5-5,5c-3.2,0-5-2.2-5-5c0-3,1.8-5,5-5C198,4,200,6,200,9">
  </path>
 </g>
</svg>